<mxfile host="app.diagrams.net" modified="2021-12-13T07:55:37.991Z" agent="5.0 (Macintosh; Intel Mac OS X 10_15_7) AppleWebKit/537.36 (KHTML, like Gecko) Chrome/96.0.4664.93 Safari/537.36" etag="0UFBbm2FmALCS6PPkkwZ" version="15.9.4" type="github">
  <diagram id="wHRrEn1xLBrHSIyLW8o4" name="Page-1">
    <mxGraphModel dx="1186" dy="503" grid="1" gridSize="10" guides="1" tooltips="1" connect="1" arrows="1" fold="1" page="1" pageScale="1" pageWidth="850" pageHeight="1100" math="0" shadow="0">
      <root>
        <mxCell id="0" />
        <mxCell id="1" parent="0" />
        <mxCell id="6j0REqsm4hI5R__kkCjw-2" value="" style="shape=umlLifeline;participant=umlEntity;perimeter=lifelinePerimeter;whiteSpace=wrap;html=1;container=1;collapsible=0;recursiveResize=0;verticalAlign=top;spacingTop=36;outlineConnect=0;" parent="1" vertex="1">
          <mxGeometry x="40" y="10" width="40" height="460" as="geometry" />
        </mxCell>
        <mxCell id="6j0REqsm4hI5R__kkCjw-14" value="" style="html=1;points=[];perimeter=orthogonalPerimeter;" parent="6j0REqsm4hI5R__kkCjw-2" vertex="1">
          <mxGeometry x="15" y="70" width="10" height="150" as="geometry" />
        </mxCell>
        <mxCell id="6j0REqsm4hI5R__kkCjw-1" value="仿真后台" style="html=1;" parent="1" vertex="1">
          <mxGeometry x="20" y="10" width="80" height="40" as="geometry" />
        </mxCell>
        <mxCell id="6j0REqsm4hI5R__kkCjw-3" value="" style="shape=umlLifeline;participant=umlEntity;perimeter=lifelinePerimeter;whiteSpace=wrap;html=1;container=1;collapsible=0;recursiveResize=0;verticalAlign=top;spacingTop=36;outlineConnect=0;" parent="1" vertex="1">
          <mxGeometry x="190" y="10" width="40" height="460" as="geometry" />
        </mxCell>
        <mxCell id="6j0REqsm4hI5R__kkCjw-36" value="" style="html=1;points=[];perimeter=orthogonalPerimeter;" parent="6j0REqsm4hI5R__kkCjw-3" vertex="1">
          <mxGeometry x="15" y="310" width="10" height="50" as="geometry" />
        </mxCell>
        <mxCell id="6j0REqsm4hI5R__kkCjw-15" value="" style="html=1;points=[];perimeter=orthogonalPerimeter;" parent="6j0REqsm4hI5R__kkCjw-3" vertex="1">
          <mxGeometry x="15" y="70" width="10" height="140" as="geometry" />
        </mxCell>
        <mxCell id="6j0REqsm4hI5R__kkCjw-47" value="" style="html=1;points=[];perimeter=orthogonalPerimeter;" parent="6j0REqsm4hI5R__kkCjw-3" vertex="1">
          <mxGeometry x="15" y="430" width="10" height="30" as="geometry" />
        </mxCell>
        <mxCell id="6j0REqsm4hI5R__kkCjw-4" value="&lt;span style=&quot;color: rgb(50 , 50 , 50) ; font-size: 13px ; background-color: rgba(255 , 255 , 255 , 0.01)&quot;&gt;调度服务&lt;/span&gt;" style="html=1;" parent="1" vertex="1">
          <mxGeometry x="170" y="10" width="80" height="40" as="geometry" />
        </mxCell>
        <mxCell id="6j0REqsm4hI5R__kkCjw-5" value="" style="shape=umlLifeline;participant=umlEntity;perimeter=lifelinePerimeter;whiteSpace=wrap;html=1;container=1;collapsible=0;recursiveResize=0;verticalAlign=top;spacingTop=36;outlineConnect=0;" parent="1" vertex="1">
          <mxGeometry x="340" y="10" width="40" height="460" as="geometry" />
        </mxCell>
        <mxCell id="6j0REqsm4hI5R__kkCjw-19" value="" style="html=1;points=[];perimeter=orthogonalPerimeter;" parent="6j0REqsm4hI5R__kkCjw-5" vertex="1">
          <mxGeometry x="15" y="80" width="10" height="100" as="geometry" />
        </mxCell>
        <mxCell id="6j0REqsm4hI5R__kkCjw-31" value="" style="html=1;points=[];perimeter=orthogonalPerimeter;" parent="6j0REqsm4hI5R__kkCjw-5" vertex="1">
          <mxGeometry x="15" y="220" width="10" height="130" as="geometry" />
        </mxCell>
        <mxCell id="6j0REqsm4hI5R__kkCjw-44" value="" style="html=1;points=[];perimeter=orthogonalPerimeter;" parent="6j0REqsm4hI5R__kkCjw-5" vertex="1">
          <mxGeometry x="15" y="390" width="10" height="60" as="geometry" />
        </mxCell>
        <mxCell id="6j0REqsm4hI5R__kkCjw-45" value="仿真结果主动回调通知" style="html=1;verticalAlign=bottom;endArrow=block;rounded=0;" parent="6j0REqsm4hI5R__kkCjw-5" source="6j0REqsm4hI5R__kkCjw-7" edge="1">
          <mxGeometry relative="1" as="geometry">
            <mxPoint x="85" y="390" as="sourcePoint" />
            <mxPoint x="20" y="390" as="targetPoint" />
          </mxGeometry>
        </mxCell>
        <mxCell id="6j0REqsm4hI5R__kkCjw-6" value="&lt;span style=&quot;color: rgb(50 , 50 , 50) ; font-size: 13px ; background-color: rgba(255 , 255 , 255 , 0.01)&quot;&gt;调度agent&lt;/span&gt;" style="html=1;" parent="1" vertex="1">
          <mxGeometry x="320" y="10" width="80" height="40" as="geometry" />
        </mxCell>
        <mxCell id="6j0REqsm4hI5R__kkCjw-7" value="" style="shape=umlLifeline;participant=umlEntity;perimeter=lifelinePerimeter;whiteSpace=wrap;html=1;container=1;collapsible=0;recursiveResize=0;verticalAlign=top;spacingTop=36;outlineConnect=0;" parent="1" vertex="1">
          <mxGeometry x="490" y="10" width="40" height="460" as="geometry" />
        </mxCell>
        <mxCell id="6j0REqsm4hI5R__kkCjw-23" value="" style="html=1;points=[];perimeter=orthogonalPerimeter;" parent="6j0REqsm4hI5R__kkCjw-7" vertex="1">
          <mxGeometry x="15" y="100" width="10" height="60" as="geometry" />
        </mxCell>
        <mxCell id="6j0REqsm4hI5R__kkCjw-32" value="" style="html=1;points=[];perimeter=orthogonalPerimeter;" parent="6j0REqsm4hI5R__kkCjw-7" vertex="1">
          <mxGeometry x="15" y="220" width="10" height="80" as="geometry" />
        </mxCell>
        <mxCell id="6j0REqsm4hI5R__kkCjw-50" value="" style="html=1;points=[];perimeter=orthogonalPerimeter;" parent="6j0REqsm4hI5R__kkCjw-7" vertex="1">
          <mxGeometry x="15" y="390" width="10" height="50" as="geometry" />
        </mxCell>
        <mxCell id="6j0REqsm4hI5R__kkCjw-8" value="&lt;div class=&quot;mind-clipboard&quot;&gt;ecu-test-&lt;div&gt;agent&lt;/div&gt;&lt;/div&gt;" style="html=1;" parent="1" vertex="1">
          <mxGeometry x="470" y="10" width="80" height="40" as="geometry" />
        </mxCell>
        <mxCell id="6j0REqsm4hI5R__kkCjw-10" value="" style="shape=umlLifeline;participant=umlEntity;perimeter=lifelinePerimeter;whiteSpace=wrap;html=1;container=1;collapsible=0;recursiveResize=0;verticalAlign=top;spacingTop=36;outlineConnect=0;" parent="1" vertex="1">
          <mxGeometry x="660" y="10" width="50" height="460" as="geometry" />
        </mxCell>
        <mxCell id="6j0REqsm4hI5R__kkCjw-11" value="&lt;meta charset=&quot;utf-8&quot;&gt;&lt;div class=&quot;mind-clipboard&quot;&gt;ECT-TEST&lt;br&gt;&lt;/div&gt;" style="html=1;" parent="6j0REqsm4hI5R__kkCjw-10" vertex="1">
          <mxGeometry x="-30" width="80" height="40" as="geometry" />
        </mxCell>
        <mxCell id="6j0REqsm4hI5R__kkCjw-26" value="" style="html=1;points=[];perimeter=orthogonalPerimeter;" parent="6j0REqsm4hI5R__kkCjw-10" vertex="1">
          <mxGeometry x="20" y="110" width="10" height="40" as="geometry" />
        </mxCell>
        <mxCell id="6j0REqsm4hI5R__kkCjw-12" value="" style="shape=umlLifeline;participant=umlEntity;perimeter=lifelinePerimeter;whiteSpace=wrap;html=1;container=1;collapsible=0;recursiveResize=0;verticalAlign=top;spacingTop=36;outlineConnect=0;" parent="1" vertex="1">
          <mxGeometry x="800" y="10" width="50" height="460" as="geometry" />
        </mxCell>
        <mxCell id="6j0REqsm4hI5R__kkCjw-13" value="VTD" style="html=1;" parent="6j0REqsm4hI5R__kkCjw-12" vertex="1">
          <mxGeometry x="-30" width="80" height="40" as="geometry" />
        </mxCell>
        <mxCell id="6j0REqsm4hI5R__kkCjw-39" value="" style="html=1;points=[];perimeter=orthogonalPerimeter;" parent="6j0REqsm4hI5R__kkCjw-12" vertex="1">
          <mxGeometry x="20" y="120" width="10" height="20" as="geometry" />
        </mxCell>
        <mxCell id="6j0REqsm4hI5R__kkCjw-16" value="提交仿真任务" style="html=1;verticalAlign=bottom;startArrow=oval;endArrow=block;startSize=8;rounded=0;exitX=1.045;exitY=-0.008;exitDx=0;exitDy=0;exitPerimeter=0;" parent="1" source="6j0REqsm4hI5R__kkCjw-14" target="6j0REqsm4hI5R__kkCjw-15" edge="1">
          <mxGeometry relative="1" as="geometry">
            <mxPoint x="150" y="80" as="sourcePoint" />
          </mxGeometry>
        </mxCell>
        <mxCell id="6j0REqsm4hI5R__kkCjw-20" value="任务调度" style="html=1;verticalAlign=bottom;startArrow=oval;endArrow=block;startSize=8;rounded=0;" parent="1" target="6j0REqsm4hI5R__kkCjw-19" edge="1">
          <mxGeometry relative="1" as="geometry">
            <mxPoint x="220" y="100" as="sourcePoint" />
            <Array as="points">
              <mxPoint x="320" y="100" />
            </Array>
          </mxGeometry>
        </mxCell>
        <mxCell id="6j0REqsm4hI5R__kkCjw-21" value="return" style="html=1;verticalAlign=bottom;endArrow=open;dashed=1;endSize=8;rounded=0;exitX=0.045;exitY=0.985;exitDx=0;exitDy=0;exitPerimeter=0;" parent="1" source="6j0REqsm4hI5R__kkCjw-19" target="6j0REqsm4hI5R__kkCjw-3" edge="1">
          <mxGeometry relative="1" as="geometry">
            <mxPoint x="350" y="170" as="sourcePoint" />
            <mxPoint x="270" y="170" as="targetPoint" />
          </mxGeometry>
        </mxCell>
        <mxCell id="6j0REqsm4hI5R__kkCjw-22" value="return" style="html=1;verticalAlign=bottom;endArrow=open;dashed=1;endSize=8;rounded=0;" parent="1" source="6j0REqsm4hI5R__kkCjw-15" target="6j0REqsm4hI5R__kkCjw-2" edge="1">
          <mxGeometry relative="1" as="geometry">
            <mxPoint x="210" y="190" as="sourcePoint" />
            <mxPoint x="130" y="190" as="targetPoint" />
            <Array as="points">
              <mxPoint x="160" y="220" />
            </Array>
          </mxGeometry>
        </mxCell>
        <mxCell id="6j0REqsm4hI5R__kkCjw-24" value="下发场景和case" style="html=1;verticalAlign=bottom;endArrow=block;entryX=0;entryY=0;rounded=0;" parent="1" source="6j0REqsm4hI5R__kkCjw-5" target="6j0REqsm4hI5R__kkCjw-23" edge="1">
          <mxGeometry relative="1" as="geometry">
            <mxPoint x="430" y="100" as="sourcePoint" />
          </mxGeometry>
        </mxCell>
        <mxCell id="6j0REqsm4hI5R__kkCjw-25" value="return" style="html=1;verticalAlign=bottom;endArrow=open;dashed=1;endSize=8;exitX=0;exitY=0.95;rounded=0;" parent="1" source="6j0REqsm4hI5R__kkCjw-23" target="6j0REqsm4hI5R__kkCjw-5" edge="1">
          <mxGeometry relative="1" as="geometry">
            <mxPoint x="430" y="176" as="targetPoint" />
          </mxGeometry>
        </mxCell>
        <mxCell id="6j0REqsm4hI5R__kkCjw-28" value="return" style="html=1;verticalAlign=bottom;endArrow=open;dashed=1;endSize=8;exitX=0;exitY=0.95;rounded=0;" parent="1" source="6j0REqsm4hI5R__kkCjw-26" target="6j0REqsm4hI5R__kkCjw-7" edge="1">
          <mxGeometry relative="1" as="geometry">
            <mxPoint x="610" y="166" as="targetPoint" />
          </mxGeometry>
        </mxCell>
        <mxCell id="6j0REqsm4hI5R__kkCjw-27" value="调用ECU-TEST API" style="html=1;verticalAlign=bottom;endArrow=block;entryX=0;entryY=0;rounded=0;" parent="1" source="6j0REqsm4hI5R__kkCjw-7" target="6j0REqsm4hI5R__kkCjw-26" edge="1">
          <mxGeometry relative="1" as="geometry">
            <mxPoint x="610" y="90" as="sourcePoint" />
          </mxGeometry>
        </mxCell>
        <mxCell id="6j0REqsm4hI5R__kkCjw-34" value="return&amp;nbsp; 回放&amp;amp;仿真报告" style="html=1;verticalAlign=bottom;endArrow=open;dashed=1;endSize=8;exitX=0;exitY=0.95;rounded=0;" parent="1" source="6j0REqsm4hI5R__kkCjw-32" target="6j0REqsm4hI5R__kkCjw-5" edge="1">
          <mxGeometry relative="1" as="geometry">
            <mxPoint x="610" y="296" as="targetPoint" />
          </mxGeometry>
        </mxCell>
        <mxCell id="6j0REqsm4hI5R__kkCjw-33" value="轮循仿真结果" style="html=1;verticalAlign=bottom;endArrow=block;entryX=0;entryY=0;rounded=0;" parent="1" source="6j0REqsm4hI5R__kkCjw-5" target="6j0REqsm4hI5R__kkCjw-32" edge="1">
          <mxGeometry x="-0.0316" relative="1" as="geometry">
            <mxPoint x="610" y="220" as="sourcePoint" />
            <mxPoint as="offset" />
          </mxGeometry>
        </mxCell>
        <mxCell id="6j0REqsm4hI5R__kkCjw-37" value="上报回放和仿真报告" style="html=1;verticalAlign=bottom;endArrow=block;entryX=1;entryY=0;rounded=0;" parent="1" source="6j0REqsm4hI5R__kkCjw-5" target="6j0REqsm4hI5R__kkCjw-36" edge="1">
          <mxGeometry relative="1" as="geometry">
            <mxPoint x="275" y="340" as="sourcePoint" />
          </mxGeometry>
        </mxCell>
        <mxCell id="6j0REqsm4hI5R__kkCjw-38" value="return" style="html=1;verticalAlign=bottom;endArrow=open;dashed=1;endSize=8;rounded=0;" parent="1" source="6j0REqsm4hI5R__kkCjw-3" target="6j0REqsm4hI5R__kkCjw-31" edge="1">
          <mxGeometry relative="1" as="geometry">
            <mxPoint x="275" y="397" as="targetPoint" />
            <Array as="points">
              <mxPoint x="290" y="360" />
            </Array>
          </mxGeometry>
        </mxCell>
        <mxCell id="6j0REqsm4hI5R__kkCjw-40" value="ssh调用vtd" style="html=1;verticalAlign=bottom;endArrow=block;entryX=0;entryY=0;rounded=0;" parent="1" source="6j0REqsm4hI5R__kkCjw-10" target="6j0REqsm4hI5R__kkCjw-39" edge="1">
          <mxGeometry relative="1" as="geometry">
            <mxPoint x="750" y="100" as="sourcePoint" />
          </mxGeometry>
        </mxCell>
        <mxCell id="6j0REqsm4hI5R__kkCjw-41" value="return" style="html=1;verticalAlign=bottom;endArrow=open;dashed=1;endSize=8;exitX=0;exitY=0.95;rounded=0;" parent="1" source="6j0REqsm4hI5R__kkCjw-39" target="6j0REqsm4hI5R__kkCjw-10" edge="1">
          <mxGeometry relative="1" as="geometry">
            <mxPoint x="750" y="176" as="targetPoint" />
          </mxGeometry>
        </mxCell>
        <mxCell id="6j0REqsm4hI5R__kkCjw-46" value="return" style="html=1;verticalAlign=bottom;endArrow=open;dashed=1;endSize=8;rounded=0;" parent="1" source="6j0REqsm4hI5R__kkCjw-44" target="6j0REqsm4hI5R__kkCjw-7" edge="1">
          <mxGeometry relative="1" as="geometry">
            <mxPoint x="425" y="457" as="targetPoint" />
          </mxGeometry>
        </mxCell>
        <mxCell id="6j0REqsm4hI5R__kkCjw-48" value="上报回放和仿真报告" style="html=1;verticalAlign=bottom;endArrow=block;entryX=1;entryY=0;rounded=0;" parent="1" source="6j0REqsm4hI5R__kkCjw-5" target="6j0REqsm4hI5R__kkCjw-47" edge="1">
          <mxGeometry relative="1" as="geometry">
            <mxPoint x="310" y="410" as="sourcePoint" />
          </mxGeometry>
        </mxCell>
        <mxCell id="6j0REqsm4hI5R__kkCjw-49" value="return" style="html=1;verticalAlign=bottom;endArrow=open;dashed=1;endSize=8;rounded=0;" parent="1" target="6j0REqsm4hI5R__kkCjw-5" edge="1">
          <mxGeometry relative="1" as="geometry">
            <mxPoint x="310" y="467" as="targetPoint" />
            <mxPoint x="210" y="460" as="sourcePoint" />
          </mxGeometry>
        </mxCell>
      </root>
    </mxGraphModel>
  </diagram>
</mxfile>
